<svg width="283" height="204" viewBox="0 0 283 204" fill="none" xmlns="http://www.w3.org/2000/svg">
<mask id="path-1-inside-1_19_692" fill="white">
<path fill-rule="evenodd" clip-rule="evenodd" d="M25.3244 0C11.3381 0 0 11.3381 0 25.3244V177.904C0 191.89 11.3381 203.228 25.3244 203.228H210C223.255 203.228 234 192.483 234 179.228V176C234 164.402 243.402 155 255 155H259C272.255 155 283 144.255 283 131V25.3244C283 11.3381 271.662 0 257.676 0H25.3244Z"/>
</mask>
<path d="M2 25.3244C2 12.4427 12.4427 2 25.3244 2V-2C10.2335 -2 -2 10.2336 -2 25.3244H2ZM2 177.904V25.3244H-2V177.904H2ZM25.3244 201.228C12.4427 201.228 2 190.786 2 177.904H-2C-2 192.995 10.2335 205.228 25.3244 205.228V201.228ZM210 201.228H25.3244V205.228H210V201.228ZM236 179.228V176H232V179.228H236ZM236 176C236 165.507 244.507 157 255 157V153C242.297 153 232 163.297 232 176H236ZM255 157H259V153H255V157ZM281 25.3244V131H285V25.3244H281ZM257.676 2C270.557 2 281 12.4427 281 25.3244H285C285 10.2335 272.766 -2 257.676 -2V2ZM25.3244 2H257.676V-2H25.3244V2ZM259 157C273.359 157 285 145.359 285 131H281C281 143.15 271.15 153 259 153V157ZM210 205.228C224.359 205.228 236 193.588 236 179.228H232C232 191.378 222.15 201.228 210 201.228V205.228Z" fill="#1B63CC" mask="url(#path-1-inside-1_19_692)"/>
</svg>
