<svg width="944" height="899" viewBox="0 0 944 899" fill="none" xmlns="http://www.w3.org/2000/svg">
<mask id="path-1-outside-1_401_8034" maskUnits="userSpaceOnUse" x="0" y="0" width="944" height="899" fill="black">
<rect fill="white" width="944" height="899"/>
<path fill-rule="evenodd" clip-rule="evenodd" d="M210 232.075C187.909 232.075 170 249.983 170 272.075V696.075C170 713.748 184.327 728.075 202 728.075H636C658.091 728.075 676 710.166 676 688.075V540.075C676 509.699 700.624 485.075 731 485.075V485.075C747.355 485.075 774 472.765 774 456.41V202C774 184.327 759.673 170 742 170H452.218C432.419 170 416.467 185.531 404.918 201.612C391.669 220.059 370.03 232.075 345.585 232.075H210Z"/>
</mask>
<path d="M340 696.075V272.075H0V696.075H340ZM202 558.075C278.215 558.075 340 619.859 340 696.075H0C0 807.636 90.4384 898.075 202 898.075V558.075ZM636 558.075H202V898.075H636V558.075ZM506 540.075V688.075H846V540.075H506ZM731 315.075C606.736 315.075 506 415.811 506 540.075H846C846 603.587 794.513 655.075 731 655.075V315.075ZM604 202V456.41H944V202H604ZM742 340C665.785 340 604 278.215 604 202H944C944 90.4384 853.561 0 742 0V340ZM452.218 340H742V0H452.218V340ZM345.585 402.075C427.088 402.075 499.184 361.783 542.996 300.781L266.84 102.444C284.154 78.336 312.972 62.0747 345.585 62.0747V402.075ZM210 402.075H345.585V62.0747H210V402.075ZM452.218 0C342.316 0 281.685 81.774 266.84 102.444L542.996 300.781C542.726 301.156 541.55 302.772 539.355 305.151C537.212 307.474 533.189 311.517 527.066 316.081C514.891 325.155 489.01 340 452.218 340V0ZM636 898.075C751.98 898.075 846 804.055 846 688.075H506C506 616.277 564.203 558.075 636 558.075V898.075ZM731 655.075C773.985 655.075 814.17 641.441 844.837 623.398C866.416 610.702 944 559.386 944 456.41H604C604 412.121 622.384 379.715 636.652 361.818C650.421 344.546 664.544 334.992 672.429 330.353C685.686 322.554 704.371 315.075 731 315.075V655.075ZM340 272.075C340 343.872 281.797 402.075 210 402.075V62.0747C94.0202 62.0747 0 156.095 0 272.075H340Z" fill="#0B0B0E" mask="url(#path-1-outside-1_401_8034)"/>
<mask id="path-3-outside-2_401_8034" maskUnits="userSpaceOnUse" x="0" y="0" width="944" height="899" fill="black">
<rect fill="white" width="944" height="899"/>
<path fill-rule="evenodd" clip-rule="evenodd" d="M210 232.075C187.909 232.075 170 249.983 170 272.075V696.075C170 713.748 184.327 728.075 202 728.075H636C658.091 728.075 676 710.166 676 688.075V540.075C676 509.699 700.624 485.075 731 485.075V485.075C747.355 485.075 774 472.765 774 456.41V202C774 184.327 759.673 170 742 170H452.218C432.419 170 416.467 185.531 404.918 201.612C391.669 220.059 370.03 232.075 345.585 232.075H210Z"/>
</mask>
<path d="M340 696.075V272.075H0V696.075H340ZM202 558.075C278.215 558.075 340 619.859 340 696.075H0C0 807.636 90.4384 898.075 202 898.075V558.075ZM636 558.075H202V898.075H636V558.075ZM506 540.075V688.075H846V540.075H506ZM731 315.075C606.736 315.075 506 415.811 506 540.075H846C846 603.587 794.513 655.075 731 655.075V315.075ZM604 202V456.41H944V202H604ZM742 340C665.785 340 604 278.215 604 202H944C944 90.4384 853.561 0 742 0V340ZM452.218 340H742V0H452.218V340ZM345.585 402.075C427.088 402.075 499.184 361.783 542.996 300.781L266.84 102.444C284.154 78.336 312.972 62.0747 345.585 62.0747V402.075ZM210 402.075H345.585V62.0747H210V402.075ZM452.218 0C342.316 0 281.685 81.774 266.84 102.444L542.996 300.781C542.726 301.156 541.55 302.772 539.355 305.151C537.212 307.474 533.189 311.517 527.066 316.081C514.891 325.155 489.01 340 452.218 340V0ZM636 898.075C751.98 898.075 846 804.055 846 688.075H506C506 616.277 564.203 558.075 636 558.075V898.075ZM731 655.075C773.985 655.075 814.17 641.441 844.837 623.398C866.416 610.702 944 559.386 944 456.41H604C604 412.121 622.384 379.715 636.652 361.818C650.421 344.546 664.544 334.992 672.429 330.353C685.686 322.554 704.371 315.075 731 315.075V655.075ZM340 272.075C340 343.872 281.797 402.075 210 402.075V62.0747C94.0202 62.0747 0 156.095 0 272.075H340Z" fill="#0B0B0E" mask="url(#path-3-outside-2_401_8034)"/>
<mask id="path-5-outside-3_401_8034" maskUnits="userSpaceOnUse" x="0" y="0" width="944" height="899" fill="black">
<rect fill="white" width="944" height="899"/>
<path fill-rule="evenodd" clip-rule="evenodd" d="M210 232.075C187.909 232.075 170 249.983 170 272.075V696.075C170 713.748 184.327 728.075 202 728.075H636C658.091 728.075 676 710.166 676 688.075V540.075C676 509.699 700.624 485.075 731 485.075V485.075C747.355 485.075 774 472.765 774 456.41V202C774 184.327 759.673 170 742 170H452.218C432.419 170 416.467 185.531 404.918 201.612C391.669 220.059 370.03 232.075 345.585 232.075H210Z"/>
</mask>
<path d="M340 696.075V272.075H0V696.075H340ZM202 558.075C278.215 558.075 340 619.859 340 696.075H0C0 807.636 90.4384 898.075 202 898.075V558.075ZM636 558.075H202V898.075H636V558.075ZM506 540.075V688.075H846V540.075H506ZM731 315.075C606.736 315.075 506 415.811 506 540.075H846C846 603.587 794.513 655.075 731 655.075V315.075ZM604 202V456.41H944V202H604ZM742 340C665.785 340 604 278.215 604 202H944C944 90.4384 853.561 0 742 0V340ZM452.218 340H742V0H452.218V340ZM345.585 402.075C427.088 402.075 499.184 361.783 542.996 300.781L266.84 102.444C284.154 78.336 312.972 62.0747 345.585 62.0747V402.075ZM210 402.075H345.585V62.0747H210V402.075ZM452.218 0C342.316 0 281.685 81.774 266.84 102.444L542.996 300.781C542.726 301.156 541.55 302.772 539.355 305.151C537.212 307.474 533.189 311.517 527.066 316.081C514.891 325.155 489.01 340 452.218 340V0ZM636 898.075C751.98 898.075 846 804.055 846 688.075H506C506 616.277 564.203 558.075 636 558.075V898.075ZM731 655.075C773.985 655.075 814.17 641.441 844.837 623.398C866.416 610.702 944 559.386 944 456.41H604C604 412.121 622.384 379.715 636.652 361.818C650.421 344.546 664.544 334.992 672.429 330.353C685.686 322.554 704.371 315.075 731 315.075V655.075ZM340 272.075C340 343.872 281.797 402.075 210 402.075V62.0747C94.0202 62.0747 0 156.095 0 272.075H340Z" fill="#0B0B0E" mask="url(#path-5-outside-3_401_8034)"/>
<rect x="702" y="560" width="27" height="46" rx="13.5" stroke="#5E6673" stroke-width="2"/>
<rect x="211" y="147" width="30" height="30" rx="15" transform="rotate(-90 211 147)" stroke="#5E6673" stroke-width="2"/>
<path fill-rule="evenodd" clip-rule="evenodd" d="M182 209.467V242.751C181.299 243.476 180.631 244.234 180 245.023V209.467C180 190.984 194.984 176 213.467 176H336C365.442 176 391.122 159.894 404.711 136.012C412.889 121.64 426.311 109 442.848 109H718.533C737.016 109 752 123.984 752 142.467V171.594C751.342 171.377 750.676 171.182 750 171.008V142.467C750 125.088 735.912 111 718.533 111H442.848C427.383 111 414.489 122.871 406.449 137.001C392.52 161.483 366.19 178 336 178H213.467C196.088 178 182 192.088 182 209.467Z" fill="#5E6673"/>
</svg>
