<svg width="572" height="603" viewBox="0 0 572 603" fill="none" xmlns="http://www.w3.org/2000/svg">
<mask id="path-1-inside-1_241_4571" fill="white">
<path fill-rule="evenodd" clip-rule="evenodd" d="M33.4669 67C14.9836 67 0 81.9837 0 100.467V569.478C0 587.961 14.9837 602.945 33.4669 602.945H453.073C471.556 602.945 486.54 587.961 486.54 569.478V389.417C486.54 362.6 508.28 340.861 535.097 340.861C549.485 340.861 572 330.323 572 315.935V33.4669C572 14.9836 557.016 0 538.533 0H262.848C246.311 0 232.889 12.6396 224.711 27.0122C211.122 50.8941 185.442 67 156 67H33.4669Z"/>
</mask>
<path d="M2 569.478V100.467H-2V569.478H2ZM33.4669 600.945C16.0882 600.945 2 586.857 2 569.478H-2C-2 589.066 13.8791 604.945 33.4669 604.945V600.945ZM453.073 600.945H33.4669V604.945H453.073V600.945ZM484.54 389.417V569.478H488.54V389.417H484.54ZM535.097 338.861C507.175 338.861 484.54 361.496 484.54 389.417H488.54C488.54 363.705 509.384 342.861 535.097 342.861V338.861ZM570 33.4669V315.935H574V33.4669H570ZM538.533 2C555.912 2 570 16.0882 570 33.4669H574C574 13.8791 558.121 -2 538.533 -2V2ZM262.848 2H538.533V-2H262.848V2ZM156 69C186.19 69 212.52 52.4826 226.449 28.0013L222.973 26.0231C209.725 49.3056 184.694 65 156 65V69ZM33.4669 69H156V65H33.4669V69ZM262.848 -2C245.24 -2 231.289 11.4083 222.973 26.0231L226.449 28.0013C234.489 13.871 247.383 2 262.848 2V-2ZM453.073 604.945C472.661 604.945 488.54 589.066 488.54 569.478H484.54C484.54 586.857 470.452 600.945 453.073 600.945V604.945ZM535.097 342.861C542.696 342.861 552.272 340.105 559.969 335.511C567.577 330.97 574 324.216 574 315.935H570C570 322.042 565.165 327.751 557.919 332.076C550.762 336.348 541.886 338.861 535.097 338.861V342.861ZM2 100.467C2 83.0882 16.0882 69 33.4669 69V65C13.8791 65 -2 80.8791 -2 100.467H2Z" fill="#5E6673" mask="url(#path-1-inside-1_241_4571)"/>
<rect x="522" y="451" width="27" height="46" rx="13.5" stroke="#5E6673" stroke-width="2"/>
<rect x="31" y="38" width="30" height="30" rx="15" transform="rotate(-90 31 38)" stroke="#5E6673" stroke-width="2"/>
</svg>
