<svg width="819" height="628" viewBox="0 0 819 628" fill="none" xmlns="http://www.w3.org/2000/svg">
<mask id="path-1-outside-1_401_8183" maskUnits="userSpaceOnUse" x="0" y="0" width="819" height="628" fill="black">
<rect fill="white" width="819" height="628"/>
<path fill-rule="evenodd" clip-rule="evenodd" d="M147 159C129.327 159 115 173.327 115 191V481C115 498.673 129.327 513 147 513H584C601.673 513 616 498.673 616 481V390C616 362.386 638.386 340 666 340V340C680.816 340 704 329.15 704 314.334V147C704 129.327 689.673 115 672 115H383.826C368.039 115 355.328 127.531 345.368 139.781C335.834 151.508 321.292 159 305 159H147Z"/>
</mask>
<path d="M345.368 139.781L256.138 67.234L345.368 139.781ZM230 481V191H0V481H230ZM147 398C192.84 398 230 435.16 230 481H0C0 562.186 65.8143 628 147 628V398ZM584 398H147V628H584V398ZM501 390V481H731V390H501ZM666 225C574.873 225 501 298.873 501 390H731C731 425.899 701.899 455 666 455V225ZM589 147V314.334H819V147H589ZM672 230C626.16 230 589 192.84 589 147H819C819 65.8141 753.186 0 672 0V230ZM383.826 230H672V0H383.826V230ZM305 274C357.369 274 404.164 249.76 434.598 212.327L256.138 67.234C267.504 53.255 285.215 44 305 44V274ZM147 274H305V44H147V274ZM383.826 0C344.041 0 313.611 16.0547 294.656 29.8762C276.337 43.2344 263.309 58.4139 256.138 67.234L434.598 212.327C437.387 208.897 435.695 211.687 430.167 215.717C424.005 220.211 407.824 230 383.826 230V0ZM584 628C665.186 628 731 562.186 731 481H501C501 435.16 538.16 398 584 398V628ZM666 455C696.673 455 726.315 445.306 749.493 431.472C767.546 420.698 819 384.235 819 314.334H589C589 286.551 600.139 265.894 609.276 254.114C617.988 242.88 626.878 236.803 631.619 233.974C639.501 229.269 650.143 225 666 225V455ZM230 191C230 236.84 192.84 274 147 274V44C65.8141 44 0 109.814 0 191H230Z" fill="#0B0B0E" mask="url(#path-1-outside-1_401_8183)"/>
<mask id="path-3-inside-2_401_8183" fill="white">
<path fill-rule="evenodd" clip-rule="evenodd" d="M148.467 132.538C129.984 132.538 115 147.521 115 166.005V481.533C115 500.016 129.984 515 148.467 515H582.533C601.016 515 616 500.016 616 481.533V392C616 364.386 638.386 342 666 342V342C680.816 342 704 331.15 704 316.334V118.467C704 99.9836 689.016 85 670.533 85H385.035C368.524 85 355.225 98.0478 345.025 111.032C334.74 124.127 318.762 132.538 300.819 132.538H148.467Z"/>
</mask>
<path d="M345.025 111.032L343.452 109.797L345.025 111.032ZM117 481.533V166.005H113V481.533H117ZM148.467 513C131.088 513 117 498.912 117 481.533H113C113 501.121 128.879 517 148.467 517V513ZM582.533 513H148.467V517H582.533V513ZM614 392V481.533H618V392H614ZM666 340C637.281 340 614 363.281 614 392H618C618 365.49 639.49 344 666 344V340ZM702 118.467V316.334H706V118.467H702ZM670.533 87C687.912 87 702 101.088 702 118.467H706C706 98.8791 690.121 83 670.533 83V87ZM385.035 87H670.533V83H385.035V87ZM300.819 134.538C319.401 134.538 335.95 125.824 346.598 112.268L343.452 109.797C333.53 122.429 318.122 130.538 300.819 130.538V134.538ZM148.467 134.538H300.819V130.538H148.467V134.538ZM385.035 83C367.478 83 353.642 96.825 343.452 109.797L346.598 112.268C356.807 99.2707 369.57 87 385.035 87V83ZM582.533 517C602.121 517 618 501.121 618 481.533H614C614 498.912 599.912 513 582.533 513V517ZM666 344C673.813 344 683.663 341.166 691.581 336.44C699.41 331.768 706 324.829 706 316.334H702C702 322.655 696.998 328.549 689.531 333.005C682.153 337.409 673.003 340 666 340V344ZM117 166.005C117 148.626 131.088 134.538 148.467 134.538V130.538C128.879 130.538 113 146.417 113 166.005H117Z" fill="#5E6673" mask="url(#path-3-inside-2_401_8183)"/>
<rect x="654" y="404" width="28" height="65" rx="14" stroke="#5E6673" stroke-width="2"/>
</svg>
