<svg width="27" height="27" viewBox="0 0 27 27" fill="none" xmlns="http://www.w3.org/2000/svg">
<path d="M2.16855 26.9039C1.64595 26.7992 1.16604 26.5422 0.789268 26.1652C0.412496 25.7882 0.155721 25.3082 0.051295 24.7855C-0.0347449 24.3505 -0.0122821 23.9009 0.116698 23.4765C0.245678 23.0522 0.477204 22.6662 0.790812 22.3526C1.10442 22.039 1.49045 21.8074 1.91479 21.6784C2.33913 21.5495 2.78871 21.527 3.22379 21.613C3.74624 21.7177 4.22604 21.9745 4.6028 22.3513C4.97956 22.728 5.23642 23.2079 5.34105 23.7303C5.42708 24.1654 5.40462 24.615 5.27564 25.0393C5.14666 25.4636 4.91514 25.8497 4.60153 26.1633C4.28792 26.4769 3.90189 26.7084 3.47755 26.8374C3.05321 26.9664 2.60363 26.99 2.16855 26.9039ZM23.7775 5.34105C23.2551 5.23642 22.7753 4.97956 22.3985 4.6028C22.0218 4.22604 21.7649 3.74624 21.6603 3.22379C21.5743 2.78871 21.5967 2.33913 21.7257 1.91479C21.8547 1.49045 22.0862 1.10442 22.3998 0.790812C22.7134 0.477204 23.0995 0.245678 23.5238 0.116698C23.9481 -0.0122821 24.3977 -0.0347449 24.8328 0.051295C25.3552 0.155921 25.835 0.412784 26.2118 0.78954C26.5886 1.1663 26.8454 1.6461 26.95 2.16855C27.0361 2.60363 27.0136 3.05321 26.8846 3.47755C26.7557 3.90189 26.5241 4.28792 26.2105 4.60153C25.8969 4.91514 25.5109 5.14666 25.0865 5.27564C24.6622 5.40462 24.2126 5.42708 23.7775 5.34105ZM13.5243 6.7383C14.8147 6.7383 16.0207 7.1028 17.0455 7.73167L19.9537 4.82355C17.8773 3.27991 15.315 2.53447 12.7347 2.72332C10.1543 2.91217 7.72783 4.02272 5.89834 5.85221C4.06884 7.68171 2.9583 10.1081 2.76945 12.6885C2.5806 15.2689 3.32603 17.8312 4.86967 19.9075L7.77892 16.9983C7.15299 15.977 6.81061 14.8073 6.78704 13.6096C6.76347 12.412 7.05957 11.2297 7.64483 10.1846C8.2301 9.13941 9.08338 8.26915 10.1168 7.66341C11.1502 7.05766 12.3264 6.73833 13.5243 6.7383ZM19.2697 9.95579C20.0605 11.2464 20.3938 12.7656 20.2158 14.2687C20.0379 15.7718 19.3591 17.1713 18.2888 18.2416C17.2185 19.3118 15.8191 19.9906 14.316 20.1686C12.8129 20.3465 11.2936 20.0132 10.003 19.2224L7.09379 22.1305C9.17016 23.6742 11.7324 24.4196 14.3128 24.2308C16.8932 24.0419 19.3196 22.9314 21.1491 21.1019C22.9786 19.2724 24.0892 16.846 24.278 14.2656C24.4669 11.6852 23.7214 9.12291 22.1778 7.04655L19.2697 9.95579Z" fill="#D4F54C"/>
</svg>
