<svg width="50" height="51" viewBox="0 0 50 51" fill="none" xmlns="http://www.w3.org/2000/svg">
<rect width="50" height="50.4521" rx="13.8451" fill="#080909"/>
<path d="M38.0984 23.0674V13.7484C38.0984 13.5547 37.9972 13.375 37.8314 13.2747L29.0795 7.97601C28.8987 7.86654 28.6713 7.86954 28.4934 7.98375L20.7645 12.9467C20.416 13.1704 20.4274 13.6835 20.7855 13.8915L28.5084 18.3783C28.6791 18.4774 28.7841 18.6598 28.7841 18.8571V28.2726C28.7841 28.7092 29.2658 28.9741 29.6345 28.7402L37.8412 23.5351C38.0014 23.4335 38.0984 23.257 38.0984 23.0674Z" fill="#1B63CC" stroke="#1B63CC" stroke-width="0.648477"/>
<path d="M9.09057 30.0512V20.4683C9.09057 20.271 9.19555 20.0886 9.36617 19.9894L17.5986 15.2067C17.7684 15.1081 17.9777 15.1067 18.1488 15.2032L26.0654 19.6672C26.4411 19.879 26.4411 20.4201 26.0654 20.632L18.1545 25.0927C17.9804 25.1909 17.8727 25.3753 17.8727 25.5751V34.9791C17.8727 35.4171 17.3882 35.6818 17.0196 35.4451L9.34514 30.5172C9.18649 30.4153 9.09057 30.2397 9.09057 30.0512Z" fill="#1B63CC" stroke="#1B63CC" stroke-width="0.648477"/>
<path d="M20.6041 37.2867L28.8177 41.8615C28.979 41.9513 29.1739 41.9545 29.3373 41.8699L37.8005 37.4898C37.9836 37.3951 38.0986 37.2052 38.0986 36.9976L38.0986 27.0681C38.0986 26.6299 37.6184 26.3623 37.2509 26.5956L29.3716 31.5997C29.1973 31.7104 28.9759 31.7137 28.7977 31.6083L21.148 27.0851C20.78 26.8676 20.3179 27.1329 20.3179 27.5618L20.3179 36.7986C20.3179 37.0014 20.4276 37.1884 20.6041 37.2867Z" fill="#1B63CC" stroke="#1B63CC" stroke-width="0.648477"/>
</svg>
