<svg width="680" height="632" viewBox="0 0 680 632" fill="none" xmlns="http://www.w3.org/2000/svg">
<path d="M359.834 2H624.856C666.248 6.59887 677.363 39.1742 677.746 54.887C677.938 175.033 678.206 420.497 677.746 441.192C677.286 461.887 667.206 475.492 662.224 479.708C646.598 492.93 637.504 502.702 637.504 502.702C637.504 502.702 617.383 526.271 617.383 542.367V590.656C617.383 619.629 600.136 629.171 578.291 629.746C410.04 629.938 66.6413 630.206 39.0468 629.746C11.4521 629.286 2.27728 610.201 2.25397 591.805C2.06232 440.617 1.79407 131.573 2.25397 104.9C2.71387 78.2263 18.3507 68.1088 39.0468 68.6836H261.528C285.673 68.6836 298.321 55.4619 325.34 22.6949C329.744 17.3542 342.012 2.57486 359.834 2Z" stroke="#646464" stroke-width="2.29944"/>
</svg>
