<svg width="590" height="549" viewBox="0 0 590 549" fill="none" xmlns="http://www.w3.org/2000/svg">
<path d="M312.221 1H542.721C578.721 5 588.387 33.3333 588.721 47C588.887 151.5 589.121 365 588.721 383C588.321 401 579.554 412.833 575.221 416.5C561.63 428 553.72 436.5 553.72 436.5C553.72 436.5 536.221 457 536.221 471V513C536.221 538.2 521.22 546.5 502.221 547C355.887 547.167 57.2205 547.4 33.2205 547C9.22052 546.6 1.24078 530 1.22052 514C1.05383 382.5 0.820496 113.7 1.22052 90.5C1.62054 67.3 15.2205 58.5 33.2205 59H226.721C247.72 59 258.72 47.5 282.221 19C286.051 14.3548 296.72 1.5 312.221 1Z" stroke="#646464" stroke-width="2"/>
</svg>
