<svg width="600" height="549" viewBox="0 0 600 549" fill="none" xmlns="http://www.w3.org/2000/svg">
<circle cx="12" cy="495" r="11" stroke="#969696" stroke-width="2"/>
<path d="M287 1H56.5002C20.5001 5 10.8335 33.3333 10.5002 47C10.3335 151.5 10.1002 365 10.5002 383C10.9002 401 19.6668 412.833 24.0002 416.5C37.5911 428 45.5002 436.5 45.5002 436.5C45.5002 436.5 63.0002 457 63.0002 471V513C63.0002 538.2 78.0002 546.5 97.0002 547C243.333 547.167 542 547.4 566 547C590 546.6 597.98 530 598 514C598.167 382.5 598.4 113.7 598 90.5C597.6 67.3 584 58.5 566 59H372.5C351.5 59 340.5 47.5 317 19C313.17 14.3548 302.5 1.5 287 1Z" stroke="white" stroke-width="2"/>
<path d="M411.72 13.428V33H409.06V16.06H408.724L404.244 33H399.792L395.396 16.06H395.06V33H392.4V13.428H397.496L401.864 30.34H402.172L406.652 13.428H411.72ZM424.041 24.152V21.772H416.481V19.112H426.673V30.368H428.549V33H424.405L424.125 31.516H424.041C423.817 31.9267 423.369 32.2813 422.697 32.58C422.025 32.8787 421.185 33.028 420.177 33.028C418.534 33.028 417.274 32.5987 416.397 31.74C415.52 30.8627 415.081 29.752 415.081 28.408C415.081 27.008 415.604 25.9533 416.649 25.244C417.694 24.516 419.094 24.152 420.849 24.152H424.041ZM424.041 26.532H421.241C420.644 26.532 420.13 26.5973 419.701 26.728C419.272 26.8587 418.917 27.0267 418.637 27.232C418.376 27.4187 418.18 27.6427 418.049 27.904C417.937 28.1467 417.881 28.3893 417.881 28.632C417.881 29.1173 418.03 29.5187 418.329 29.836C418.646 30.1533 419.029 30.3773 419.477 30.508C419.925 30.6387 420.42 30.6853 420.961 30.648C421.502 30.592 421.997 30.4613 422.445 30.256C422.893 30.032 423.266 29.724 423.565 29.332C423.882 28.94 424.041 28.4733 424.041 27.932V26.532ZM443.746 38.684H431.93V36.024H441.114V31.46H441.058C440.778 31.8893 440.255 32.244 439.49 32.524C438.743 32.804 437.922 32.944 437.026 32.944C436.279 32.944 435.514 32.8693 434.73 32.72C433.965 32.5707 433.265 32.2533 432.63 31.768C431.995 31.2827 431.482 30.5827 431.09 29.668C430.698 28.7347 430.502 27.5027 430.502 25.972C430.502 24.4227 430.698 23.1907 431.09 22.276C431.501 21.3613 432.014 20.6613 432.63 20.176C433.265 19.6907 433.965 19.3827 434.73 19.252C435.514 19.1027 436.279 19.028 437.026 19.028C437.978 19.028 438.827 19.168 439.574 19.448C440.321 19.728 440.843 20.1013 441.142 20.568H441.226V19.028H443.746V38.684ZM437.138 30.284C437.866 30.284 438.482 30.228 438.986 30.116C439.49 29.9853 439.901 29.7707 440.218 29.472C440.554 29.1547 440.797 28.716 440.946 28.156C441.095 27.596 441.17 26.8867 441.17 26.028C441.17 25.0573 441.077 24.2827 440.89 23.704C440.722 23.1253 440.47 22.6867 440.134 22.388C439.798 22.0707 439.387 21.8653 438.902 21.772C438.435 21.6787 437.903 21.632 437.306 21.632C436.709 21.632 436.167 21.6693 435.682 21.744C435.215 21.8187 434.814 22.0053 434.478 22.304C434.142 22.584 433.881 23.0227 433.694 23.62C433.526 24.1987 433.442 25.0013 433.442 26.028C433.442 26.9427 433.517 27.68 433.666 28.24C433.815 28.7813 434.039 29.2107 434.338 29.528C434.637 29.8267 435.019 30.032 435.486 30.144C435.953 30.2373 436.503 30.284 437.138 30.284ZM447.658 19H450.29V33H447.658V19ZM450.29 13.4V16.032H447.658V13.4H450.29ZM460.155 21.772C459.483 21.772 458.905 21.828 458.419 21.94C457.934 22.0333 457.533 22.2293 457.215 22.528C456.917 22.8267 456.693 23.256 456.543 23.816C456.394 24.376 456.319 25.104 456.319 26C456.319 27.0267 456.403 27.8387 456.571 28.436C456.758 29.0333 457.01 29.4813 457.327 29.78C457.663 30.06 458.065 30.2373 458.531 30.312C459.017 30.3867 459.558 30.424 460.155 30.424C460.622 30.424 461.051 30.4053 461.443 30.368C461.835 30.3307 462.181 30.2467 462.479 30.116C462.797 29.9667 463.058 29.752 463.263 29.472C463.487 29.192 463.665 28.8093 463.795 28.324H466.483C466.297 29.3507 465.979 30.1813 465.531 30.816C465.102 31.432 464.598 31.908 464.019 32.244C463.441 32.58 462.815 32.804 462.143 32.916C461.471 33.0093 460.809 33.056 460.155 33.056C459.409 33.056 458.653 32.9813 457.887 32.832C457.122 32.6827 456.422 32.3747 455.787 31.908C455.171 31.4227 454.667 30.7227 454.275 29.808C453.883 28.8747 453.687 27.6427 453.687 26.112C453.687 24.5627 453.883 23.3307 454.275 22.416C454.667 21.5013 455.171 20.8013 455.787 20.316C456.422 19.8307 457.122 19.5133 457.887 19.364C458.653 19.2147 459.409 19.14 460.155 19.14C460.809 19.14 461.471 19.196 462.143 19.308C462.815 19.42 463.441 19.644 464.019 19.98C464.617 20.316 465.13 20.8013 465.559 21.436C465.989 22.0707 466.297 22.9107 466.483 23.956H463.823C463.599 23.0413 463.189 22.4533 462.591 22.192C462.013 21.912 461.201 21.772 460.155 21.772ZM472.38 23.172C472.417 23.5267 472.632 23.8067 473.024 24.012C473.416 24.2173 473.901 24.404 474.48 24.572C475.077 24.7213 475.712 24.8893 476.384 25.076C477.056 25.244 477.681 25.4867 478.26 25.804C478.839 26.1213 479.315 26.5413 479.688 27.064C480.08 27.568 480.276 28.2307 480.276 29.052C480.276 29.556 480.173 30.0507 479.968 30.536C479.781 31.0213 479.473 31.46 479.044 31.852C478.615 32.2253 478.055 32.5333 477.364 32.776C476.692 33.0187 475.88 33.14 474.928 33.14C474.163 33.14 473.444 33.028 472.772 32.804C472.119 32.5613 471.54 32.2347 471.036 31.824C470.532 31.3947 470.121 30.9 469.804 30.34C469.505 29.7613 469.328 29.136 469.272 28.464H472.156C472.212 28.744 472.296 29.024 472.408 29.304C472.539 29.584 472.716 29.836 472.94 30.06C473.183 30.284 473.481 30.4613 473.836 30.592C474.191 30.7227 474.62 30.788 475.124 30.788C475.74 30.788 476.216 30.7227 476.552 30.592C476.907 30.4427 477.168 30.2747 477.336 30.088C477.504 29.9013 477.607 29.7333 477.644 29.584C477.681 29.416 477.7 29.3133 477.7 29.276C477.737 28.66 477.569 28.2027 477.196 27.904C476.823 27.6053 476.337 27.372 475.74 27.204C475.161 27.0173 474.527 26.868 473.836 26.756C473.145 26.6253 472.501 26.4293 471.904 26.168C471.307 25.9067 470.803 25.5333 470.392 25.048C470 24.5627 469.804 23.8907 469.804 23.032C469.804 22.528 469.888 22.0427 470.056 21.576C470.243 21.1093 470.523 20.6893 470.896 20.316C471.288 19.9427 471.783 19.644 472.38 19.42C472.977 19.196 473.696 19.084 474.536 19.084C475.227 19.084 475.889 19.168 476.524 19.336C477.159 19.504 477.719 19.7653 478.204 20.12C478.689 20.456 479.072 20.8947 479.352 21.436C479.651 21.9587 479.8 22.5747 479.8 23.284H477C476.963 23.06 476.897 22.8453 476.804 22.64C476.711 22.416 476.571 22.22 476.384 22.052C476.216 21.884 475.983 21.744 475.684 21.632C475.404 21.52 475.049 21.4547 474.62 21.436C474.135 21.4173 473.743 21.4733 473.444 21.604C473.145 21.716 472.912 21.8653 472.744 22.052C472.595 22.2387 472.492 22.4347 472.436 22.64C472.38 22.8453 472.361 23.0227 472.38 23.172ZM489.576 19.112C490.341 19.112 491.106 19.1867 491.872 19.336C492.637 19.4853 493.328 19.8027 493.944 20.288C494.578 20.7547 495.092 21.4453 495.484 22.36C495.876 23.2747 496.072 24.5067 496.072 26.056C496.072 27.6053 495.876 28.8373 495.484 29.752C495.092 30.6667 494.578 31.3667 493.944 31.852C493.328 32.3373 492.637 32.6547 491.872 32.804C491.106 32.9533 490.341 33.028 489.576 33.028C488.829 33.028 488.064 32.9533 487.28 32.804C486.514 32.6547 485.814 32.3373 485.18 31.852C484.564 31.3667 484.06 30.6667 483.668 29.752C483.276 28.8373 483.08 27.6053 483.08 26.056C483.08 24.5067 483.276 23.2747 483.668 22.36C484.06 21.4453 484.564 20.7547 485.18 20.288C485.814 19.8027 486.514 19.4853 487.28 19.336C488.064 19.1867 488.829 19.112 489.576 19.112ZM489.576 30.396C490.173 30.396 490.705 30.3587 491.172 30.284C491.657 30.2093 492.058 30.032 492.376 29.752C492.712 29.4533 492.964 29.0053 493.132 28.408C493.318 27.8107 493.412 26.9987 493.412 25.972C493.412 25.0573 493.337 24.3293 493.188 23.788C493.038 23.228 492.805 22.7987 492.488 22.5C492.189 22.2013 491.797 22.0053 491.312 21.912C490.826 21.8 490.248 21.744 489.576 21.744C488.904 21.744 488.316 21.8 487.812 21.912C487.326 22.0053 486.925 22.2013 486.608 22.5C486.309 22.7987 486.085 23.228 485.936 23.788C485.786 24.3293 485.712 25.0573 485.712 25.972C485.712 26.9987 485.796 27.8107 485.964 28.408C486.15 29.0053 486.412 29.4533 486.748 29.752C487.084 30.032 487.485 30.2093 487.952 30.284C488.437 30.3587 488.978 30.396 489.576 30.396ZM501.235 13.4H510.111V16.032H503.867V19.112H508.543V21.772H503.867V33H501.235V21.772H498.883V19.112H501.235V13.4ZM517.182 30.368H522.922V33H514.55V21.744H512.198V19.112H514.55V13.4H517.182V19.112H521.858V21.744H517.182V30.368Z" fill="white"/>
</svg>
