<svg width="50" height="50" viewBox="0 0 50 50" fill="none" xmlns="http://www.w3.org/2000/svg">
<rect width="50" height="50" rx="13.8451" fill="#080909"/>
<path d="M38.0984 22.8567V13.6297C38.0984 13.4352 37.9963 13.2549 37.8295 13.1548L29.0775 7.90364C28.8977 7.79571 28.6723 7.79868 28.4953 7.9113L20.7734 12.8252C20.4224 13.0486 20.4338 13.5648 20.7944 13.7724L28.5066 18.2128C28.6782 18.3116 28.7841 18.4946 28.7841 18.6927V28.0153C28.7841 28.4509 29.2638 28.716 29.6326 28.4841L37.8393 23.3256C38.0006 23.2243 38.0984 23.0472 38.0984 22.8567Z" fill="#1B63CC" stroke="#1B63CC" stroke-width="0.648477"/>
<path d="M9.09154 29.7782V20.2896C9.09154 20.0915 9.19735 19.9085 9.36902 19.8097L17.6014 15.0698C17.7703 14.9726 17.9778 14.9713 18.1479 15.0663L26.0568 19.486C26.435 19.6974 26.435 20.2415 26.0568 20.4529L18.1573 24.8673C17.9822 24.9652 17.8736 25.1501 17.8736 25.3507V34.6619C17.8736 35.0989 17.3912 35.3638 17.0225 35.1292L9.34802 30.2454C9.18828 30.1437 9.09154 29.9675 9.09154 29.7782Z" fill="#1B63CC" stroke="#1B63CC" stroke-width="0.648477"/>
<path d="M20.6041 36.9527L28.8177 41.4865C28.979 41.5755 29.1741 41.5785 29.3381 41.4944L37.7975 37.1555C37.9824 37.0607 38.0986 36.8704 38.0986 36.6627L38.0986 26.8268C38.0986 26.391 37.6186 26.126 37.2498 26.3581L29.3726 31.316C29.1977 31.4261 28.976 31.4296 28.7976 31.3251L21.1517 26.8447C20.7825 26.6284 20.3179 26.8946 20.3179 27.3225L20.3179 36.4679C20.3179 36.6695 20.4275 36.8552 20.6041 36.9527Z" fill="#1B63CC" stroke="#1B63CC" stroke-width="0.648477"/>
</svg>
