<svg data-name="015_HEALTH" viewBox="0 0 24 24" xmlns="http://www.w3.org/2000/svg"><path d="M12 15c-4.132 0-7.98-1.214-10.294-3.249a1 1 0 1 1 1.32-1.502C4.986 11.972 8.34 13 12 13s7.014-1.028 8.974-2.751a1 1 0 1 1 1.32 1.502C19.98 13.786 16.132 15 12 15Z" fill="#8f8f8f" class="fill-333333"></path><path d="M12 18a1 1 0 0 1-1-1v-3a1 1 0 0 1 2 0v3a1 1 0 0 1-1 1ZM7.749 17.667a.964.964 0 0 1-.17-.014 1 1 0 0 1-.817-1.155l.505-2.935a1 1 0 1 1 1.97.339l-.504 2.935a1 1 0 0 1-.984.83ZM3.636 16.306a1.001 1.001 0 0 1-.942-1.336l.978-2.745a1 1 0 1 1 1.884.672l-.978 2.745a1 1 0 0 1-.942.664ZM16.251 17.667a1 1 0 0 1-.984-.83l-.505-2.935a1 1 0 0 1 1.97-.339l.506 2.935a1 1 0 0 1-.816 1.155.964.964 0 0 1-.17.014ZM20.364 16.306a1 1 0 0 1-.942-.664l-.978-2.745a1 1 0 1 1 1.884-.672l.978 2.745a1.001 1.001 0 0 1-.942 1.336Z" fill="#8f8f8f" class="fill-333333"></path></svg>