<svg width="1512" height="887" viewBox="0 0 1512 887" fill="none" xmlns="http://www.w3.org/2000/svg">
<mask id="mask0_528_43198" style="mask-type:alpha" maskUnits="userSpaceOnUse" x="0" y="0" width="1512" height="887">
<rect width="1512" height="887" fill="black"/>
</mask>
<g mask="url(#mask0_528_43198)">
<g opacity="0.5">
<path d="M1016.3 257.615L923.785 204.126C905.181 193.377 882.555 193.633 864.203 204.638L772.191 259.407C753.839 270.412 742.526 290.63 742.778 312.129L743.532 420.643C743.783 442.397 755.096 462.359 773.7 473.109L866.215 526.598C884.818 537.347 907.444 537.091 925.796 526.086L1017.81 471.317C1036.16 460.312 1047.47 440.093 1047.22 418.595L1046.47 310.081C1046.47 288.327 1034.9 268.364 1016.3 257.615Z" fill="#1F1F20"/>
<path d="M1118.14 342.042L1054.69 210.062C1041.94 183.666 1015.94 165.727 986.287 163.42L838.304 151.375C808.655 149.069 780.047 162.395 763.142 186.485L678.618 306.676C661.713 330.766 659.112 361.775 671.856 388.427L735.314 520.663C748.058 547.059 774.065 564.998 803.714 567.305L951.697 579.35C981.345 581.656 1009.95 568.33 1026.86 544.24L1111.38 424.049C1128.29 399.703 1130.89 368.694 1118.14 342.042ZM1080.69 448.138L987.587 544.24C968.862 563.461 941.294 571.405 915.026 565.255L784.208 533.733C757.941 527.326 737.135 507.85 729.592 482.223L691.621 354.599C684.079 328.972 690.841 301.551 709.567 282.33L802.674 186.228C821.399 167.008 848.967 159.064 875.234 165.214L1006.31 196.736C1032.58 203.142 1053.39 222.619 1060.93 248.246L1098.9 375.87C1106.18 401.241 1099.42 428.918 1080.69 448.138Z" fill="#1F1F20"/>
<path d="M1168.06 259.377L1042.86 110.686C1017.82 81.0004 978.84 66.9385 940.635 73.9695L750.128 109.124C711.923 116.155 680.43 143.237 667.523 179.954L602.471 363.799C589.564 400.517 596.792 441.66 621.832 471.347L747.03 620.037C772.07 649.724 811.049 663.785 849.254 656.755L1039.76 621.6C1077.97 614.569 1109.46 587.487 1122.37 550.77L1187.42 366.924C1200.58 330.207 1193.1 289.063 1168.06 259.377ZM1157.47 408.85L1073.06 564.571C1056.28 595.82 1024.01 615.35 988.908 616.392L813.114 620.558C778.007 621.339 744.965 603.111 726.637 572.904L634.997 421.349C616.669 390.882 615.895 353.123 632.674 321.874L717.086 166.153C733.865 134.904 766.133 115.374 801.24 114.332L977.033 110.166C1012.14 109.384 1045.18 127.613 1063.51 157.82L1155.15 309.375C1173.48 339.582 1174.25 377.601 1157.47 408.85Z" fill="#1F1F20"/>
<path d="M1257.19 312.704L1144.95 98.4925C1122.4 55.548 1078.83 27.9408 1030.39 25.8958L788.22 15.9265C739.786 13.8815 693.913 37.91 668.03 78.8096L538.358 282.796C512.475 323.696 510.168 375.332 532.72 418.02L644.966 632.232C667.518 675.177 711.083 702.784 759.518 704.829L1001.69 714.798C1050.13 716.843 1096 692.815 1121.88 651.915L1251.56 447.928C1277.69 407.029 1279.74 355.649 1257.19 312.704ZM1203.38 490.106L1057.82 654.982C1028.6 687.958 984.01 703.039 940.957 694.348L724.922 650.892C681.612 642.201 646.504 611.271 632.409 569.605L562.191 361.528C548.096 319.861 557.322 273.85 586.537 240.874L732.098 75.9978C761.312 43.0225 805.903 27.9407 848.956 36.6319L1064.99 80.0877C1108.3 88.7788 1143.41 119.709 1157.5 161.376L1227.72 369.452C1241.82 411.119 1232.59 457.131 1203.38 490.106Z" fill="#1F1F20"/>
<path d="M1295.7 141.613L1070.9 -64.0296C1025.94 -105.158 962.692 -118.868 905.286 -99.726L617.749 -4.53552C560.343 14.606 517.161 63.4947 504.461 123.765L441.975 424.856C429.528 485.126 449.341 547.725 494.3 588.853L719.098 794.754C764.058 835.883 827.306 849.592 884.712 830.451L1172 735.26C1229.4 716.119 1272.58 667.23 1285.28 606.96L1348.02 305.61C1360.47 245.34 1340.66 183 1295.7 141.613ZM1310.18 377.261L1211.87 638.518C1192.32 690.769 1146.59 728.535 1092.24 737.33L820.956 781.303C766.598 790.098 711.732 768.629 677.187 725.172L504.207 507.889C469.662 464.433 460.263 405.456 480.076 353.205L578.377 91.9483C597.936 39.697 643.658 1.93124 698.015 -6.86354L969.297 -50.8374C1023.65 -59.6322 1078.52 -38.1626 1113.07 5.2939L1286.05 222.577C1320.59 266.033 1329.73 325.01 1310.18 377.261Z" fill="#1F1F20"/>
<path d="M1307.9 -26.4051L972.467 -197.748C905.227 -232.169 824.948 -228.09 761.542 -187.294L444.772 16.9405C381.367 57.7364 344.551 129.384 348.386 204.346L367.305 579.923C371.14 655.141 414.859 722.454 481.844 756.875L817.533 928.473C884.773 962.895 965.053 958.815 1028.46 918.019L1345.23 713.785C1408.63 672.989 1445.45 601.341 1441.61 526.379L1422.69 150.802C1418.86 75.5846 1375.14 8.01643 1307.9 -26.4051ZM1399.43 247.437L1362.87 587.318C1355.45 655.396 1312.25 714.295 1249.61 742.087L935.907 880.538C873.269 908.33 800.404 900.426 744.924 860.14L468.038 658.456C412.558 618.17 382.901 551.366 390.315 483.288L426.876 143.408C434.29 75.3296 477.497 16.4306 540.136 -11.3615L853.582 -149.813C916.22 -177.605 989.085 -169.701 1044.56 -129.415L1321.71 72.2699C1377.19 112.556 1406.59 179.359 1399.43 247.437Z" fill="#1F1F20"/>
<path d="M1595.25 355.185L1435.71 -82.5508C1403.7 -170.15 1327.9 -234.045 1236.48 -250.019L779.886 -329.888C688.464 -345.862 595.506 -311.596 536.095 -239.971L239.294 118.153C179.883 189.778 162.982 287.94 194.736 375.539L354.276 813.275C386.286 900.874 462.087 964.769 553.508 980.743L1010.1 1060.61C1101.53 1076.59 1194.48 1042.32 1253.9 970.695L1550.95 612.829C1610.11 540.946 1627.01 442.784 1595.25 355.185ZM1448.77 681.104L1131.49 959.874C1067.98 1015.78 979.631 1033.04 899.989 1005.73L501.523 868.668C421.626 841.358 362.47 773.083 346.337 689.864L264.903 274.285C248.513 191.066 277.707 105.529 341.215 49.6202L658.502 -229.15C722.011 -285.058 810.36 -302.321 890.002 -275.01L1288.72 -137.944C1368.62 -110.634 1427.78 -42.3584 1443.91 40.8604L1525.34 456.697C1541.48 539.658 1512.28 625.453 1448.77 681.104Z" fill="#1F1F20"/>
<path d="M1698.31 73.4596L1343.14 -363.557C1272.16 -450.909 1159.51 -493.945 1047.9 -476.526L490.33 -388.661C378.713 -370.986 285.1 -295.417 244.465 -190.39L42.0636 334.747C1.68621 439.775 20.4604 558.379 91.4424 645.987L446.609 1083C517.591 1170.36 630.237 1213.39 741.853 1195.97L1299.68 1107.85C1411.3 1090.18 1504.91 1014.61 1545.54 909.581L1747.94 384.7C1788.32 279.672 1769.55 161.068 1698.31 73.4596ZM1657.16 502.791L1400.49 945.444C1349.06 1034.08 1254.16 1088.64 1151.54 1088.64H638.466C535.851 1088.64 440.951 1034.08 389.515 945.444L132.848 502.791C81.4123 414.158 81.4123 305.032 132.848 216.399L389.515 -226.253C440.951 -314.886 535.851 -369.449 638.466 -369.449H1151.8C1254.41 -369.449 1349.31 -314.886 1400.75 -226.253L1657.16 216.656C1708.6 305.032 1708.6 414.415 1657.16 502.791Z" fill="#1F1F20"/>
<path d="M1704.11 -273.792L1129.55 -636.052C1014.38 -708.453 869.459 -714.101 749.417 -650.686L148.694 -333.869C28.3955 -270.455 -48.8109 -147.733 -53.9409 -11.6607L-80.1039 667.673C-85.2339 803.489 -17.7745 932.115 97.394 1004.52L671.954 1366.78C786.866 1439.18 931.789 1444.82 1052.09 1381.41L1652.81 1064.34C1773.11 1000.92 1850.32 878.2 1855.45 742.128L1881.35 63.0506C1886.74 -73.0215 1819.02 -201.392 1704.11 -273.792ZM1824.15 233.526L1704.37 839.689C1680.26 961.127 1593.56 1060.23 1476.59 1100.02L892.031 1299C775.067 1338.79 645.791 1313.12 552.682 1231.73L88.4165 824.798C-4.43645 743.411 -47.0154 618.379 -22.9045 497.198L97.1375 -108.965C121.249 -230.403 207.946 -329.505 324.91 -369.299L909.216 -568.53C1026.18 -608.324 1155.46 -582.65 1248.57 -501.264L1712.83 -94.0743C1805.94 -12.6877 1848.26 112.088 1824.15 233.526Z" fill="#1F1F20"/>
<path d="M1575.8 -660.342L786.195 -861.003C628.377 -901.033 460.807 -853.819 347.126 -737.065L-221.533 -153.812C-335.214 -37.0587 -378.068 131.528 -333.93 288.568L-112.985 1072.74C-68.8469 1229.52 55.8681 1350.89 213.943 1390.92L1003.55 1591.59C1161.62 1631.87 1328.94 1584.66 1442.87 1467.9L2011.53 884.651C2125.21 767.897 2168.07 599.311 2123.93 442.271L1902.98 -341.9C1858.33 -498.683 1733.88 -620.055 1575.8 -660.342ZM1900.42 -126.099L1987.15 609.318C2004.6 756.607 1941.99 901.843 1823.18 990.37L1229.88 1433.26C1111.07 1521.79 954.021 1540.52 817.759 1482.02L137.472 1189.49C1.20908 1130.99 -93.2253 1004.23 -110.675 856.938L-197.668 121.52C-215.118 -25.7683 -152.503 -171.004 -33.6906 -259.531L559.861 -702.424C678.673 -790.951 835.722 -809.683 971.985 -751.178L1652.27 -458.654C1788.28 -400.149 1882.97 -273.388 1900.42 -126.099Z" fill="#1F1F20"/>
</g>
</g>
</svg>
