<svg width="1920" height="1365" viewBox="0 0 1920 1365" fill="none" xmlns="http://www.w3.org/2000/svg">
<mask id="mask0_556_38875" style="mask-type:alpha" maskUnits="userSpaceOnUse" x="0" y="0" width="1920" height="1365">
<rect width="1920" height="1365" fill="black"/>
</mask>
<g mask="url(#mask0_556_38875)">
<g opacity="0.04">
<path d="M3512.34 -49.0913H1949.09C1940.48 25.823 1833.21 97.416 1720.77 168.64C1603.74 242.816 1491.88 317.73 1491.88 395.966C1491.88 474.202 1603.74 549.116 1720.77 623.292C1837.8 697.469 1949.66 772.383 1949.66 850.618C1949.66 928.854 1837.8 1003.77 1720.77 1077.94C1603.74 1152.12 1491.88 1227.04 1491.88 1305.27C1491.88 1383.51 1603.74 1458.42 1720.77 1532.6C1837.8 1606.77 1949.66 1681.69 1949.66 1759.92C1949.66 1838.16 1837.8 1913.07 1720.77 1987.25C1603.74 2061.43 1491.88 2136.34 1491.88 2214.58C1491.88 2292.81 1603.74 2367.73 1720.77 2441.9C1837.8 2516.08 1949.66 2590.99 1949.66 2669.23C1949.66 2747.46 1837.8 2822.38 1720.77 2896.55C1603.74 2970.73 1491.88 3045.64 1491.88 3123.88C1491.88 3136.06 1494.74 3147.87 1499.33 3159.68H3512.34V-49.0913Z" fill="white"/>
<path d="M1554.98 440.619C1554.98 362.384 1666.84 287.469 1783.87 213.293C1900.9 139.117 2012.77 64.2027 2012.77 -14.033C2012.77 -25.8421 2009.9 -37.6513 2005.31 -49.4604H1949.09C1940.48 25.4539 1833.21 97.0469 1720.77 168.271C1603.74 242.447 1491.87 317.361 1491.87 395.597C1491.87 459.071 1565.3 520.331 1655.94 580.853C1596.85 535.093 1554.98 488.594 1554.98 440.619Z" fill="#1F1F20"/>
<path d="M1783.87 1122.6C1900.9 1048.42 2012.77 973.507 2012.77 895.272C2012.77 831.797 1938.76 770.538 1848.7 710.016C1907.78 755.776 1949.66 802.644 1949.66 850.249C1949.66 928.485 1837.8 1003.4 1720.77 1077.58C1603.74 1151.75 1491.87 1226.67 1491.87 1304.9C1491.87 1368.38 1565.3 1429.64 1655.94 1490.16C1596.85 1444.4 1554.98 1397.53 1554.98 1349.92C1554.98 1271.69 1666.84 1196.77 1783.87 1122.6Z" fill="#1F1F20"/>
<path d="M1720.77 622.923C1698.97 608.9 1676.6 594.876 1655.95 580.853C1693.81 610.007 1738.55 639.161 1783.87 667.946C1805.67 681.969 1827.47 695.992 1848.7 710.016C1810.84 680.862 1766.66 651.708 1720.77 622.923Z" fill="#1F1F20"/>
<path d="M1916.96 3017.23C2033.99 2943.05 2145.85 2868.14 2145.85 2789.9C2145.85 2711.67 2033.99 2636.75 1916.96 2562.58C1799.93 2488.4 1688.07 2413.49 1688.07 2335.25C1688.07 2257.01 1799.93 2182.1 1916.96 2107.92C2033.99 2033.75 2145.85 1958.83 2145.85 1880.6C2145.85 1802.36 2033.99 1727.45 1916.96 1653.27C1799.93 1579.1 1688.07 1504.18 1688.07 1425.95C1688.07 1347.71 1799.93 1272.8 1916.96 1198.62C2033.99 1124.44 2145.85 1049.53 2145.85 971.293C2145.85 893.057 2033.99 818.143 1916.96 743.967C1799.93 669.791 1688.07 594.876 1688.07 516.641C1688.07 438.405 1799.93 363.491 1916.96 289.315C2033.99 215.138 2145.85 140.224 2145.85 61.9883C2145.85 23.9776 2119.47 -12.926 2079.31 -49.8296H2046.04C2068.98 -23.259 2082.75 3.68063 2082.75 31.3583C2082.75 109.594 1970.89 184.508 1853.86 258.685C1736.83 332.861 1624.96 407.775 1624.96 486.011C1624.96 564.246 1736.83 639.161 1853.86 713.337C1970.89 787.513 2082.75 862.427 2082.75 940.663C2082.75 1018.9 1970.89 1093.81 1853.86 1167.99C1736.83 1242.17 1624.96 1317.08 1624.96 1395.32C1624.96 1473.55 1736.83 1548.47 1853.86 1622.64C1970.89 1696.82 2082.75 1771.73 2082.75 1849.97C2082.75 1928.2 1970.89 2003.12 1853.86 2077.29C1736.83 2151.47 1624.96 2226.38 1624.96 2304.62C1624.96 2382.86 1736.83 2457.77 1853.86 2531.95C1970.89 2606.12 2082.75 2681.04 2082.75 2759.27C2082.75 2837.51 1970.89 2912.42 1853.86 2986.6C1764.36 3043.06 1678.31 3100.26 1642.17 3158.94H1728.22C1771.25 3110.96 1842.96 3064.1 1916.96 3017.23Z" fill="#1F1F20"/>
<path d="M2050.05 3030.15C2167.08 2955.97 2278.95 2881.05 2278.95 2802.82C2278.95 2724.58 2167.08 2649.67 2050.05 2575.49C1933.02 2501.32 1821.16 2426.4 1821.16 2348.17C1821.16 2269.93 1933.02 2195.02 2050.05 2120.84C2167.08 2046.66 2278.95 1971.75 2278.95 1893.51C2278.95 1815.28 2167.08 1740.36 2050.05 1666.19C1933.02 1592.01 1821.16 1517.1 1821.16 1438.86C1821.16 1360.63 1933.02 1285.71 2050.05 1211.54C2167.08 1137.36 2278.95 1062.45 2278.95 984.209C2278.95 905.974 2167.08 831.06 2050.05 756.883C1933.02 682.707 1821.16 607.793 1821.16 529.557C1821.16 451.322 1933.02 376.407 2050.05 302.231C2167.08 228.424 2278.95 153.509 2278.95 75.2738C2278.95 32.8347 2246.25 -8.49735 2197.49 -49.0913H2130.37C2181.42 -7.02121 2215.84 35.4179 2215.84 78.9642C2215.84 157.2 2103.98 232.114 1986.95 306.29C1869.92 380.467 1758.05 455.381 1758.05 533.617C1758.05 611.852 1869.92 686.766 1986.95 760.943C2103.98 835.119 2215.84 910.033 2215.84 988.269C2215.84 1066.5 2103.98 1141.42 1986.95 1215.6C1869.92 1289.77 1758.05 1364.69 1758.05 1442.92C1758.05 1521.16 1869.92 1596.07 1986.95 1670.25C2103.98 1744.42 2215.84 1819.34 2215.84 1897.57C2215.84 1975.81 2103.98 2050.72 1986.95 2124.9C1869.92 2199.08 1758.05 2273.99 1758.05 2352.23C1758.05 2430.46 1869.92 2505.38 1986.95 2579.55C2103.98 2653.73 2215.84 2728.64 2215.84 2806.88C2215.84 2885.11 2103.98 2960.03 1986.95 3034.2C1921.55 3075.54 1857.87 3117.24 1814.27 3159.68H1873.94C1916.96 3115.39 1982.93 3072.58 2050.05 3030.15Z" fill="#1F1F20"/>
<path d="M2183.15 2971.1C2300.17 2896.92 2412.04 2822.01 2412.04 2743.77C2412.04 2665.54 2300.17 2590.62 2183.15 2516.45C2066.12 2442.27 1954.25 2367.36 1954.25 2289.12C1954.25 2210.89 2066.12 2135.97 2183.15 2061.79C2300.17 1987.62 2412.04 1912.7 2412.04 1834.47C2412.04 1756.23 2300.17 1681.32 2183.15 1607.14C2066.12 1532.97 1954.25 1458.05 1954.25 1379.82C1954.25 1301.58 2066.12 1226.67 2183.15 1152.49C2300.17 1078.31 2412.04 1003.4 2412.04 925.164C2412.04 846.928 2300.17 772.014 2183.15 697.837C2066.12 623.661 1954.25 548.747 1954.25 470.511C1954.25 392.276 2066.12 317.361 2183.15 243.185C2300.17 169.009 2412.04 94.0945 2412.04 15.8588C2412.04 -6.28334 2402.86 -28.0565 2387.37 -49.8296H2293.29C2327.14 -16.6163 2348.36 16.9659 2348.36 51.2863C2348.36 129.522 2236.5 204.436 2119.47 278.612C2002.44 352.789 1890.57 427.703 1890.57 505.939C1890.57 584.174 2002.44 659.089 2119.47 733.265C2236.5 807.441 2348.36 882.355 2348.36 960.591C2348.36 1038.83 2236.5 1113.74 2119.47 1187.92C2002.44 1262.09 1890.57 1337.01 1890.57 1415.24C1890.57 1493.48 2002.44 1568.39 2119.47 1642.57C2236.5 1716.75 2348.36 1791.66 2348.36 1869.9C2348.36 1948.13 2236.5 2023.05 2119.47 2097.22C2002.44 2171.4 1890.57 2246.31 1890.57 2324.55C1890.57 2402.78 2002.44 2477.7 2119.47 2551.87C2236.5 2626.05 2348.36 2700.96 2348.36 2779.2C2348.36 2857.44 2236.5 2932.35 2119.47 3006.53C2040.3 3056.72 1963.43 3107.27 1922.13 3158.94H1962.86C1992.11 3094.73 2085.62 3032.73 2183.15 2971.1Z" fill="#1F1F20"/>
<path d="M-20.3203 3158.94H1555.55C1564.16 3084.02 1671.43 3012.06 1783.87 2940.84C1900.9 2866.66 2012.77 2791.75 2012.77 2713.51C2012.77 2635.28 1900.9 2560.36 1783.87 2486.19C1666.84 2412.01 1554.98 2337.1 1554.98 2258.86C1554.98 2180.62 1666.84 2105.71 1783.87 2031.53C1900.9 1957.36 2012.77 1882.44 2012.77 1804.21C2012.77 1725.97 1900.9 1651.06 1783.87 1576.88C1666.84 1502.7 1554.98 1427.79 1554.98 1349.55C1554.98 1271.32 1666.84 1196.41 1783.87 1122.23C1900.9 1048.05 2012.77 973.138 2012.77 894.903C2012.77 816.667 1900.9 741.753 1783.87 667.576C1666.84 593.4 1554.98 518.486 1554.98 440.25C1554.98 362.015 1666.84 287.1 1783.87 212.924C1900.9 138.748 2012.77 63.8335 2012.77 -14.4021C2012.77 -26.2113 2009.9 -38.0204 2005.31 -49.8296H-20.3203V3158.94Z" fill="white"/>
<path d="M-20.3223 193.734V261.637C73.1859 200.008 150.058 137.272 150.058 72.3215C150.058 30.9895 119.079 -9.23542 72.0386 -49.0913H34.75C66.8755 -16.9852 86.954 15.49 86.954 48.7032C86.954 98.1541 42.2077 146.498 -20.3223 193.734Z" fill="#1F1F20"/>
<path d="M-20.3223 812.977C42.2077 860.583 86.954 908.557 86.954 958.008C86.954 1007.46 42.2077 1055.43 -20.3223 1103.04V1170.94C72.6122 1109.31 150.058 1046.58 150.058 981.626C150.058 916.676 73.1859 853.94 -20.3223 791.942V812.977Z" fill="#1F1F20"/>
<path d="M-8.85028 306.659C-12.866 308.874 -16.308 311.457 -19.75 313.671V342.825C3.77046 326.587 29.0119 310.719 54.8271 294.481C171.856 220.305 283.721 145.391 283.721 67.155C283.721 27.6682 255.038 -11.0806 212.013 -49.0913H133.993C185.05 -7.02121 220.044 35.787 220.044 79.3332C220.044 157.569 108.178 232.483 -8.85028 306.659Z" fill="#1F1F20"/>
<path d="M-20.3223 753.931C-16.3066 756.145 -12.8646 758.729 -9.42254 760.943C107.606 835.119 219.472 910.033 219.472 988.269C219.472 1066.5 107.606 1141.42 -9.42254 1215.6C-13.4382 1217.81 -16.8802 1220.39 -20.3223 1222.61V1251.76C3.1982 1235.52 28.4397 1219.65 54.2548 1203.42C171.283 1129.24 283.149 1054.33 283.149 976.091C283.149 897.855 171.283 822.941 54.2548 748.765C29.0133 732.896 3.77187 716.658 -20.3223 700.421V753.931Z" fill="#1F1F20"/>
<path d="M-20.3223 617.388C20.4083 650.97 71.4649 684.184 123.669 717.397C240.697 791.573 352.563 866.487 352.563 944.723C352.563 1022.96 240.697 1097.87 123.669 1172.05C71.4649 1205.26 20.4083 1238.48 -20.3223 1272.06V1297.89C17.5399 1241.43 100.722 1186.44 186.772 1132.19C303.801 1058.02 415.667 983.103 415.667 904.867C415.667 826.631 303.801 751.717 186.772 677.541C100.722 622.924 17.5399 567.937 -20.3223 511.844V617.388Z" fill="#1F1F20"/>
<path d="M124.241 262.744C72.0371 295.957 20.9805 329.171 -19.75 362.753V388.585C18.1122 332.123 101.294 277.137 187.345 222.888C304.373 148.343 416.239 73.4287 416.239 -4.80698C416.239 -19.5684 412.223 -34.6989 404.766 -49.0913H313.552C338.22 -21.4136 353.135 7.00217 353.135 35.4179C353.135 113.654 241.27 188.568 124.241 262.744Z" fill="#1F1F20"/>
<path d="M320.439 584.912C202.837 511.105 91.5451 435.822 91.5451 357.586C91.5451 301.124 149.486 246.506 225.784 192.627C120.802 260.53 28.4414 328.801 28.4414 400.025C28.4414 478.261 140.307 553.175 257.336 627.351C374.364 701.528 486.23 776.442 486.23 854.678C486.23 911.14 428.289 965.757 351.991 1019.64C456.973 952.103 549.334 883.462 549.334 812.238C549.334 734.003 437.468 659.088 320.439 584.912Z" fill="#1F1F20"/>
<path d="M257.337 172.699C290.036 152.033 322.735 130.998 351.993 110.332C341.666 116.974 330.767 123.986 320.441 130.629C287.741 151.295 255.616 171.961 225.785 192.996C236.111 185.984 246.437 179.341 257.337 172.699Z" fill="#1F1F20"/>
<path d="M257.337 1082C290.036 1061.34 322.735 1040.3 351.993 1019.64C341.666 1026.28 330.767 1033.29 320.441 1039.93C287.741 1060.6 255.042 1081.27 225.785 1102.3C236.111 1095.29 246.437 1088.65 257.337 1082Z" fill="#1F1F20"/>
<path d="M536.138 -49.0916H486.229C482.213 5.15674 425.994 58.2979 351.99 110.332C433.451 57.9289 506.881 5.15674 536.138 -49.0916Z" fill="#1F1F20"/>
<path d="M320.439 1494.22C203.411 1420.04 91.5451 1345.13 91.5451 1266.89C91.5451 1210.43 149.486 1155.81 225.784 1101.93C120.802 1169.47 28.4414 1238.11 28.4414 1308.96C28.4414 1387.2 140.307 1462.11 257.336 1536.29C374.364 1610.46 486.23 1685.75 486.23 1763.98C486.23 1820.44 428.289 1875.06 351.991 1928.94C456.973 1861.04 549.334 1792.77 549.334 1721.54C549.334 1643.31 437.468 1568.39 320.439 1494.22Z" fill="#1F1F20"/>
<path d="M224.637 3031.99C224.637 2953.75 336.503 2878.84 453.531 2804.66C570.56 2730.49 682.425 2655.57 682.425 2577.34C682.425 2499.1 570.56 2424.19 453.531 2350.01C336.503 2275.84 224.637 2200.92 224.637 2122.69C224.637 2044.45 336.503 1969.54 453.531 1895.36C570.56 1821.18 682.425 1746.27 682.425 1668.03C682.425 1589.8 570.56 1514.88 453.531 1440.71C336.503 1366.53 224.637 1291.62 224.637 1213.38C224.637 1135.14 336.503 1060.23 453.531 986.054C570.56 911.878 682.425 836.964 682.425 758.728C682.425 680.493 570.56 605.578 453.531 531.402C336.503 457.226 224.637 382.311 224.637 304.076C224.637 225.84 336.503 150.926 453.531 76.7497C519.503 35.4177 583.754 -6.65242 627.353 -49.0916H580.312C537.861 -0.378803 465.005 47.2268 390.427 94.4635C272.825 168.64 161.533 243.554 161.533 321.79C161.533 400.025 273.399 474.94 390.427 549.116C507.456 623.292 619.322 698.206 619.322 776.442C619.322 854.678 507.456 929.592 390.427 1003.77C273.399 1077.94 161.533 1152.86 161.533 1231.09C161.533 1309.33 273.399 1384.24 390.427 1458.42C507.456 1532.6 619.322 1607.51 619.322 1685.75C619.322 1763.98 507.456 1838.9 390.427 1913.07C273.399 1987.25 161.533 2062.16 161.533 2140.4C161.533 2218.63 273.399 2293.55 390.427 2367.73C507.456 2441.9 619.322 2516.82 619.322 2595.05C619.322 2673.29 507.456 2748.2 390.427 2822.38C273.399 2896.55 161.533 2971.47 161.533 3049.7C161.533 3086.98 186.775 3123.51 225.784 3159.31H308.966C258.483 3117.61 224.637 3075.17 224.637 3031.99Z" fill="#1F1F20"/>
<path d="M357.153 3051.92C357.153 2973.68 469.018 2898.77 586.047 2824.59C703.075 2750.42 814.941 2675.5 814.941 2597.27C814.941 2519.03 703.075 2444.12 586.047 2369.94C469.018 2295.76 357.153 2220.85 357.153 2142.61C357.153 2064.38 469.018 1989.46 586.047 1915.29C703.075 1841.11 814.941 1766.2 814.941 1687.96C814.941 1609.73 703.075 1534.81 586.047 1460.63C469.018 1386.46 357.153 1311.54 357.153 1233.31C357.153 1155.07 469.018 1080.16 586.047 1005.98C703.075 931.806 814.941 856.892 814.941 778.656C814.941 700.421 703.075 625.506 586.047 551.33C469.018 477.523 357.726 402.608 357.153 324.373C357.726 246.137 469.018 171.223 586.62 97.0467C662.919 49.072 736.922 0.359268 778.8 -49.0916H697.912C654.313 -6.28338 590.062 36.1558 523.517 78.2259C405.914 152.402 294.622 227.316 294.049 305.552C294.049 383.788 405.914 458.702 522.943 532.878C639.972 607.054 751.837 681.969 751.837 760.204C751.837 838.44 639.972 913.354 522.943 987.531C405.914 1061.71 294.049 1136.62 294.049 1214.86C294.049 1293.09 405.914 1368.01 522.943 1442.18C639.972 1516.36 751.837 1591.27 751.837 1669.51C751.837 1747.74 639.972 1822.66 522.943 1896.84C405.914 1971.01 294.049 2045.93 294.049 2124.16C294.049 2202.4 405.914 2277.31 522.943 2351.49C639.972 2425.66 751.837 2500.58 751.837 2578.81C751.837 2657.05 639.972 2731.96 522.943 2806.14C405.914 2879.95 294.622 2954.86 294.049 3033.1C294.049 3075.91 327.895 3117.98 377.231 3158.94H419.109C381.82 3123.88 357.726 3088.08 357.153 3051.92Z" fill="#1F1F20"/>
<path d="M719.715 1086.43C836.743 1012.26 948.609 937.342 948.609 859.106C948.609 789.728 860.837 723.301 759.872 657.244C832.154 709.278 885.505 761.681 885.505 815.929C885.505 894.165 773.64 969.079 656.611 1043.26C539.582 1117.43 427.717 1192.35 427.717 1270.58C427.717 1339.96 515.488 1406.39 616.454 1472.44C544.172 1420.41 490.82 1368.01 490.82 1313.39C490.82 1235.52 602.112 1160.24 719.715 1086.43Z" fill="#1F1F20"/>
<path d="M490.246 404.454C490.246 326.218 602.112 251.304 719.141 177.128C836.169 103.32 946.887 28.7752 948.035 -49.4604H874.031C843.053 13.2757 751.266 73.7976 656.037 133.95C539.008 208.496 427.716 283.41 427.143 361.646C427.143 431.024 514.914 497.451 615.88 563.508C544.171 511.474 490.82 458.702 490.246 404.454Z" fill="#1F1F20"/>
<path d="M656.61 588.972C643.416 580.484 629.648 571.996 616.453 563.508C648.579 586.389 683.572 609.269 719.714 631.78C732.908 640.268 746.676 648.756 759.871 657.243C727.745 634.363 692.178 611.483 656.61 588.972Z" fill="#1F1F20"/>
<path d="M852.806 2993.61C969.835 2919.43 1081.7 2844.52 1081.7 2766.28C1081.7 2688.05 969.835 2613.13 852.806 2538.96C735.777 2464.78 623.912 2389.87 623.912 2311.63C623.912 2233.4 735.777 2158.48 852.806 2084.31C969.835 2010.13 1081.7 1935.22 1081.7 1856.98C1081.7 1778.74 969.835 1703.83 852.806 1629.65C735.777 1555.48 623.912 1480.56 623.912 1402.33C623.912 1324.09 735.777 1249.18 852.806 1175C969.835 1100.82 1081.7 1025.91 1081.7 947.675C1081.7 869.439 969.835 794.525 852.806 720.349C735.777 646.172 623.912 571.258 623.912 493.022C623.912 414.787 735.777 339.872 852.806 265.696C969.835 191.52 1081.7 116.606 1081.7 38.37C1081.7 8.4781 1065.64 -20.6757 1038.67 -49.8296H1004.25C1012.86 -33.592 1018.02 -17.3544 1018.02 -1.11683C1018.02 77.1188 906.157 152.033 789.129 226.209C672.1 300.386 560.234 375.3 560.234 453.536C560.234 531.771 672.1 606.685 789.129 680.862C906.157 755.038 1018.02 829.952 1018.02 908.188C1018.02 986.424 906.157 1061.34 789.129 1135.51C672.1 1210.06 560.808 1284.97 560.234 1363.21C560.234 1441.44 672.1 1516.36 789.129 1590.54C906.157 1664.71 1018.02 1739.63 1018.02 1817.86C1018.02 1896.1 906.157 1971.01 789.129 2045.19C672.1 2119.36 560.234 2194.28 560.234 2272.51C560.234 2350.75 672.1 2425.66 789.129 2499.84C906.157 2574.02 1018.02 2648.93 1018.02 2727.17C1018.02 2805.4 906.157 2880.32 789.129 2954.49C683 3021.29 582.034 3089.19 563.103 3159.31H645.137C683.573 3102.85 766.755 3047.86 852.806 2993.61Z" fill="#1F1F20"/>
<path d="M985.32 3034.2C1102.35 2960.03 1214.21 2885.11 1214.21 2806.88C1214.21 2728.64 1102.35 2653.73 985.32 2579.55C868.292 2505.38 756.426 2430.46 756.426 2352.23C756.426 2273.99 868.292 2199.08 985.32 2124.9C1102.35 2050.72 1214.21 1975.81 1214.21 1897.57C1214.21 1819.34 1102.35 1744.42 985.32 1670.25C868.292 1596.07 756.426 1521.16 756.426 1442.92C756.426 1364.69 868.292 1289.77 985.32 1215.59C1102.35 1141.42 1214.21 1066.5 1214.21 988.269C1214.21 910.033 1102.35 835.119 985.32 760.943C868.292 686.766 756.426 611.852 756.426 533.616C756.426 455.381 868.292 380.466 985.32 306.29C1102.35 232.114 1214.21 157.2 1214.21 78.964C1214.21 35.0487 1179.22 -7.39045 1127.59 -49.8296H1077.11C1121.28 -11.0808 1151.11 28.037 1151.11 68.2619C1151.11 146.498 1039.25 221.412 922.217 295.588C805.188 369.764 693.322 444.679 693.322 522.914C693.322 601.15 805.188 676.064 922.217 750.24C1039.25 824.417 1151.11 899.331 1151.11 977.567C1151.11 1055.8 1039.25 1130.72 922.217 1204.89C805.188 1279.07 693.322 1353.98 693.322 1432.22C693.322 1510.45 805.188 1585.37 922.217 1659.55C1039.25 1733.72 1151.11 1808.64 1151.11 1886.87C1151.11 1965.11 1039.25 2040.02 922.217 2114.2C805.188 2188.37 693.322 2263.29 693.322 2341.52C693.322 2419.76 805.188 2494.67 922.217 2568.85C1039.25 2643.03 1151.11 2717.94 1151.11 2796.18C1151.11 2874.41 1039.25 2949.33 922.217 3023.5C851.655 3068.16 783.388 3113.18 739.79 3158.94H813.219C856.818 3116.87 920.496 3075.54 985.32 3034.2Z" fill="#1F1F20"/>
<path d="M1118.42 3000.62C1235.44 2926.45 1347.31 2851.53 1347.31 2773.3C1347.31 2695.06 1235.44 2620.15 1118.42 2545.97C1001.39 2471.79 889.521 2396.88 889.521 2318.64C889.521 2240.41 1001.39 2165.49 1118.42 2091.32C1235.44 2017.14 1347.31 1942.23 1347.31 1863.99C1347.31 1785.76 1235.44 1710.84 1118.42 1636.67C1001.39 1562.49 889.521 1487.57 889.521 1409.34C889.521 1331.1 1001.39 1256.19 1118.42 1182.01C1235.44 1107.84 1347.31 1032.92 1347.31 954.686C1347.31 876.451 1235.44 801.537 1118.42 727.36C1001.39 653.184 889.521 578.27 889.521 500.034C889.521 421.799 1001.39 346.884 1118.42 272.708C1235.44 198.532 1347.31 123.617 1347.31 45.3818C1347.31 13.2757 1328.38 -18.4614 1297.97 -49.4604H1207.91C1253.23 -9.9736 1283.63 29.8823 1283.63 70.4762C1283.63 148.712 1171.77 223.626 1054.74 297.802C937.709 371.979 825.844 446.893 825.844 525.129C825.844 603.364 937.709 678.279 1054.74 752.455C1171.77 826.631 1283.63 901.545 1283.63 979.781C1283.63 1058.02 1171.77 1132.93 1054.74 1207.11C937.709 1281.28 825.844 1356.2 825.844 1434.43C825.844 1512.67 937.709 1587.58 1054.74 1661.76C1171.77 1735.94 1283.63 1810.85 1283.63 1889.09C1283.63 1967.32 1171.77 2042.24 1054.74 2116.41C937.709 2190.59 825.844 2265.5 825.844 2343.74C825.844 2421.97 937.709 2496.89 1054.74 2571.06C1171.77 2645.24 1283.63 2720.15 1283.63 2798.39C1283.63 2876.63 1171.77 2951.54 1054.74 3025.72C985.324 3069.63 917.631 3113.92 874.032 3159.31H915.91C956.64 3105.06 1036.38 3052.66 1118.42 3000.62Z" fill="#1F1F20"/>
<path d="M1251.5 641.006C1134.47 566.829 1022.61 491.915 1022.61 413.679C1022.61 364.598 1066.78 316.623 1128.74 269.386C1035.8 331.015 959.504 393.382 959.504 458.333C959.504 536.568 1071.37 611.483 1188.4 685.659C1305.43 759.835 1417.29 834.749 1417.29 912.985C1417.29 962.067 1373.12 1010.04 1311.16 1057.28C1404.1 995.649 1480.4 933.282 1480.4 868.332C1480.4 790.096 1369.1 715.182 1251.5 641.006Z" fill="#1F1F20"/>
<path d="M1251.5 1550.31C1134.47 1476.13 1022.61 1401.22 1022.61 1322.98C1022.61 1273.9 1066.78 1225.93 1128.74 1178.69C1035.8 1240.32 959.504 1302.69 959.504 1367.64C959.504 1445.87 1071.37 1520.79 1188.4 1594.96C1305.43 1669.14 1417.29 1744.05 1417.29 1822.29C1417.29 1871.37 1373.12 1919.35 1311.16 1966.58C1404.1 1904.95 1480.4 1842.59 1480.4 1777.64C1480.4 1699.4 1369.1 1624.12 1251.5 1550.31Z" fill="#1F1F20"/>
<path d="M1188.4 231.007C1232 203.329 1274.45 176.02 1311.17 147.974C1291.66 160.89 1271.58 173.806 1251.5 186.353C1207.9 213.662 1165.45 241.34 1128.74 269.386C1148.24 256.47 1168.32 243.923 1188.4 231.007Z" fill="#1F1F20"/>
<path d="M1480.39 -40.9726C1480.39 -43.9249 1480.39 -46.5082 1479.82 -49.4604H1401.23C1411.55 -32.1158 1417.29 -14.402 1417.29 3.3117C1417.29 52.3935 1373.12 100.368 1311.16 147.605C1404.1 86.3448 1480.39 23.9777 1480.39 -40.9726Z" fill="#1F1F20"/>
<path d="M1188.4 1140.31C1232 1113 1274.45 1085.33 1311.17 1057.28C1291.66 1070.2 1271.58 1083.11 1251.5 1095.66C1207.9 1122.97 1165.45 1150.64 1128.74 1178.69C1148.24 1165.78 1168.32 1152.86 1188.4 1140.31Z" fill="#1F1F20"/>
<path d="M1155.7 3057.82C1155.7 2979.59 1267.57 2904.67 1384.6 2830.5C1501.62 2756.32 1613.49 2681.41 1613.49 2603.17C1613.49 2524.93 1501.62 2450.02 1384.6 2375.84C1267.57 2301.67 1155.7 2226.75 1155.7 2148.52C1155.7 2070.28 1267.57 1995.37 1384.6 1921.19C1501.62 1847.02 1613.49 1772.1 1613.49 1693.87C1613.49 1615.63 1501.62 1540.72 1384.6 1466.54C1267.57 1392.36 1155.7 1317.45 1155.7 1239.21C1155.7 1160.98 1267.57 1086.06 1384.6 1011.89C1501.62 937.711 1613.49 862.797 1613.49 784.561C1613.49 706.325 1501.62 631.411 1384.6 557.235C1267.57 483.059 1155.7 408.144 1155.7 329.909C1155.7 251.673 1267.57 176.759 1384.6 102.582C1463.76 52.3935 1540.63 2.20459 1581.94 -49.4604H1541.21C1511.95 14.3828 1419.02 76.7499 1321.49 138.01C1204.46 212.186 1092.6 287.1 1092.6 365.336C1092.6 443.572 1204.46 518.486 1321.49 592.662C1438.52 666.838 1550.39 741.753 1550.39 819.988C1550.39 898.224 1438.52 973.138 1321.49 1047.31C1204.46 1121.49 1092.6 1196.41 1092.6 1274.64C1092.6 1352.88 1204.46 1427.79 1321.49 1501.97C1438.52 1576.14 1550.39 1651.06 1550.39 1729.29C1550.39 1807.53 1438.52 1882.44 1321.49 1956.62C1204.46 2030.8 1092.6 2105.71 1092.6 2183.95C1092.6 2262.18 1204.46 2337.1 1321.49 2411.27C1438.52 2485.45 1550.39 2560.36 1550.39 2638.6C1550.39 2716.83 1438.52 2791.75 1321.49 2865.92C1204.46 2940.1 1092.6 3015.01 1092.6 3093.25C1092.6 3115.39 1101.78 3137.53 1117.27 3159.31H1211.35C1177.5 3125.73 1155.7 3092.14 1155.7 3057.82Z" fill="#1F1F20"/>
<path d="M1288.79 3030.51C1288.79 2952.28 1400.66 2877.36 1517.69 2803.19C1634.72 2729.01 1746.58 2654.1 1746.58 2575.86C1746.58 2497.63 1634.72 2422.71 1517.69 2348.54C1400.66 2274.36 1288.79 2199.44 1288.79 2121.21C1288.79 2042.97 1400.66 1968.06 1517.69 1893.88C1634.72 1819.71 1746.58 1744.79 1746.58 1666.56C1746.58 1588.32 1634.72 1513.41 1517.69 1439.23C1400.66 1365.05 1288.79 1290.14 1288.79 1211.9C1288.79 1133.67 1400.66 1058.75 1517.69 984.578C1634.72 910.402 1746.58 835.488 1746.58 757.252C1746.58 679.016 1634.72 604.102 1517.69 529.926C1400.66 455.75 1288.79 380.835 1288.79 302.6C1288.79 224.364 1400.66 149.45 1517.69 75.2736C1583.09 33.9416 1646.76 -7.39045 1689.79 -49.8296H1630.13C1586.53 -6.28334 1521.13 36.1558 1454.01 78.5949C1336.98 152.771 1225.12 227.685 1225.12 305.921C1225.12 384.157 1336.98 459.071 1454.01 533.247C1571.04 607.424 1682.91 682.338 1682.91 760.573C1682.91 838.809 1571.04 913.723 1454.01 987.9C1336.98 1062.08 1225.12 1136.99 1225.12 1215.23C1225.12 1293.46 1336.98 1368.38 1454.01 1442.55C1571.04 1516.73 1682.91 1591.64 1682.91 1669.88C1682.91 1748.11 1571.04 1823.03 1454.01 1897.2C1336.98 1971.38 1225.12 2046.29 1225.12 2124.53C1225.12 2202.77 1336.98 2277.68 1454.01 2351.86C1571.04 2426.03 1682.91 2500.95 1682.91 2579.18C1682.91 2657.42 1571.04 2732.33 1454.01 2806.51C1336.98 2880.69 1225.12 2955.6 1225.12 3033.84C1225.12 3076.27 1258.39 3117.61 1307.15 3158.57H1374.27C1323.79 3116.87 1288.79 3074.43 1288.79 3030.51Z" fill="#1F1F20"/>
<path d="M1421.88 3077.38C1421.88 2999.15 1533.75 2924.23 1650.78 2850.06C1767.81 2775.88 1879.67 2700.96 1879.67 2622.73C1879.67 2544.49 1767.81 2469.58 1650.78 2395.4C1533.75 2321.23 1421.88 2246.31 1421.88 2168.08C1421.88 2089.84 1533.75 2014.93 1650.78 1940.75C1767.81 1866.57 1879.67 1791.66 1879.67 1713.42C1879.67 1635.19 1767.81 1560.27 1650.78 1486.1C1533.75 1411.92 1421.88 1337.01 1421.88 1258.77C1421.88 1180.54 1533.75 1105.62 1650.78 1031.45C1767.81 957.27 1879.67 882.355 1879.67 804.12C1879.67 725.884 1767.81 650.97 1650.78 576.794C1533.75 502.617 1421.88 427.703 1421.88 349.467C1421.88 271.232 1533.75 196.317 1650.78 122.141C1740.27 65.6787 1826.32 8.84713 1861.89 -49.8296H1775.84C1732.81 -1.85491 1661.11 45.0127 1587.68 91.5112C1470.65 165.687 1358.78 240.602 1358.78 318.837C1358.78 397.073 1470.65 471.987 1587.68 546.164C1704.7 620.34 1816.57 695.254 1816.57 773.49C1816.57 851.725 1704.7 926.64 1587.68 1000.82C1470.65 1074.99 1358.78 1149.91 1358.78 1228.14C1358.78 1306.38 1470.65 1381.29 1587.68 1455.47C1704.7 1529.64 1816.57 1604.56 1816.57 1682.79C1816.57 1761.03 1704.7 1835.94 1587.68 1910.12C1470.65 1984.3 1358.78 2059.21 1358.78 2137.45C1358.78 2215.68 1470.65 2290.6 1587.68 2364.77C1704.7 2438.95 1816.57 2513.86 1816.57 2592.1C1816.57 2670.33 1704.7 2745.25 1587.68 2819.43C1470.65 2893.6 1358.78 2968.52 1358.78 3046.75C1358.78 3084.76 1385.17 3122.03 1425.9 3158.94H1459.17C1435.65 3132.37 1421.88 3105.06 1421.88 3077.38Z" fill="#1F1F20"/>
<path d="M1720.77 622.923C1698.97 608.9 1677.17 594.876 1655.94 580.853C1693.8 610.007 1738.55 639.161 1783.87 667.946C1805.67 681.969 1827.47 695.992 1848.69 709.647C1810.83 680.862 1766.09 651.708 1720.77 622.923Z" fill="#1F1F20"/>
<path d="M1783.87 1122.6C1900.9 1048.42 2012.76 973.507 2012.76 895.272C2012.76 831.797 1938.76 770.168 1848.69 710.016C1907.78 755.776 1949.66 802.644 1949.66 850.249C1949.66 928.485 1837.79 1003.4 1720.76 1077.58C1603.73 1151.75 1491.87 1226.67 1491.87 1304.9C1491.87 1368.38 1565.3 1429.64 1655.94 1490.16C1596.85 1444.4 1554.97 1397.53 1554.97 1349.92C1554.97 1271.69 1666.84 1196.77 1783.87 1122.6Z" fill="#1F1F20"/>
<path d="M1554.97 440.619C1554.97 362.384 1666.84 287.469 1783.87 213.293C1900.9 139.117 2012.76 64.2027 2012.76 -14.033C2012.76 -25.8421 2009.89 -37.6513 2005.3 -49.4604H1949.08C1940.48 25.4539 1833.2 97.0469 1720.76 168.271C1603.73 242.447 1491.87 317.361 1491.87 395.597C1491.87 459.071 1565.3 520.7 1655.94 580.853C1596.85 535.093 1554.97 488.594 1554.97 440.619Z" fill="#1F1F20"/>
</g>
</g>
<rect width="960" height="1365" transform="matrix(-1 0 0 1 961.27 0)" fill="url(#paint0_linear_556_38875)"/>
<rect x="960" width="960" height="1365" fill="url(#paint1_linear_556_38875)"/>
<defs>
<linearGradient id="paint0_linear_556_38875" x1="-1.84784e-05" y1="642.233" x2="959.743" y2="627.522" gradientUnits="userSpaceOnUse">
<stop stop-color="#080909"/>
<stop offset="0.692952" stop-color="#080909" stop-opacity="0.57719"/>
<stop offset="1" stop-color="#080909" stop-opacity="0"/>
</linearGradient>
<linearGradient id="paint1_linear_556_38875" x1="960" y1="642.233" x2="1919.74" y2="627.522" gradientUnits="userSpaceOnUse">
<stop stop-color="#080909"/>
<stop offset="0.692952" stop-color="#080909" stop-opacity="0.57719"/>
<stop offset="1" stop-color="#080909" stop-opacity="0"/>
</linearGradient>
</defs>
</svg>
