<svg width="197" height="196" viewBox="0 0 197 196" fill="none" xmlns="http://www.w3.org/2000/svg">
<mask id="path-1-inside-1_106_4719" fill="white">
<path fill-rule="evenodd" clip-rule="evenodd" d="M108.806 14.4959C102.705 8.1031 95.8365 0 87 0H19.4982C8.72965 0 0 8.72964 0 19.4982V180C0 188.837 7.16345 196 16 196H181C189.837 196 197 188.837 197 180V37C197 28.1634 189.837 21 181 21H124C118.023 21 112.63 18.5032 108.806 14.4959Z"/>
</mask>
<path fill-rule="evenodd" clip-rule="evenodd" d="M108.806 14.4959C102.705 8.1031 95.8365 0 87 0H19.4982C8.72965 0 0 8.72964 0 19.4982V180C0 188.837 7.16345 196 16 196H181C189.837 196 197 188.837 197 180V37C197 28.1634 189.837 21 181 21H124C118.023 21 112.63 18.5032 108.806 14.4959Z" fill="#111114"/>
<path d="M19.4982 1H87V-1H19.4982V1ZM1 19.4982C1 9.28193 9.28193 1 19.4982 1V-1C8.17736 -1 -1 8.17736 -1 19.4982H1ZM1 180V19.4982H-1V180H1ZM181 195H16V197H181V195ZM196 37V180H198V37H196ZM181 20H124V22H181V20ZM124 20C118.308 20 113.172 17.6233 109.529 13.8055L108.082 15.1862C112.087 19.3831 117.739 22 124 22V20ZM198 37C198 27.6112 190.389 20 181 20V22C189.284 22 196 28.7157 196 37H198ZM181 197C190.389 197 198 189.389 198 180H196C196 188.284 189.284 195 181 195V197ZM-1 180C-1 189.389 6.61117 197 16 197V195C7.71573 195 1 188.284 1 180H-1ZM87 1C91.0988 1 94.8092 2.87713 98.3097 5.63604C101.822 8.40433 104.997 11.9536 108.082 15.1862L109.529 13.8055C106.513 10.6454 103.204 6.9467 99.5477 4.06525C95.8798 1.17443 91.7377 -1 87 -1V1Z" fill="#AAB4C2" mask="url(#path-1-inside-1_106_4719)"/>
</svg>
